<?xml version="1.0" encoding="UTF-8"?>
<svg id="_Слой_1" data-name="Слой_1" xmlns="http://www.w3.org/2000/svg" viewBox="0 0 85.15 27.42">
  <defs>
    <style>
      .cls-1 {
        fill: #fff;
      }

      .cls-2 {
        font-family: Consolas-Bold, Consolas;
        font-size: 20px;
        font-weight: 700;
      }

      .cls-3 {
        fill: #89bf11;
      }
    </style>
  </defs>
  <path class="cls-3" d="M21.03,26.94c-.61.21-2.14.45-3.1.47-.96.02-1.63-.17-2.72-.49-1.06-.31-1.97-.57-3.02-1.24-.96-.61-1.57-1.24-2.08-1.78-.9-.95-1.44-1.79-1.81-2.37-.56-.88-.89-1.58-1.25-2.31-.58-1.21-.93-1.96-1.21-2.99-.36-1.35-.3-2.19-.65-3.96-.07-.37-.04-.83-.59-2.74-.62-2.14-.72-2.5-.86-2.9-.44-1.33-.77-1.71-1.06-2.29C1.73,2.37.69,1.11.69,1.11.28.62-.09.24.02.07c.15-.23,2.41.2,2.96.33,2.22.52.4.2,3.08.6,2.25.34,4.28.87,6.8,1.61,2.21.65,3.32.97,4.73,1.61,2.74,1.24,4.3,2.55,4.64,2.84.76.65,1.58,1.36,2.38,2.53,1.18,1.72,1.56,3.33,1.8,4.37.21.92.62,2.81.22,5.2-.14.84.12,2.06-.77,3.56-.61,1.02-1.39,1.94-1.78,2.31-.35.32-1.13,1.27-3.03,1.91Z"/>
  <polygon class="cls-1" points="24.23 22.85 20.5 20.28 16.61 15.01 12.9 11.68 14.76 16.41 17.67 21.4 20.7 27.4 23.16 26.32 25.25 24.09 24.23 22.85"/>
  <text class="cls-2" transform="translate(8.17 19.86)"><tspan x="0" y="0">Эко Дом</tspan></text>
</svg>